<?xml version="1.0" standalone="no"?>
<!DOCTYPE svg PUBLIC "-//W3C//DTD SVG 20010904//EN"
 "http://www.w3.org/TR/2001/REC-SVG-20010904/DTD/svg10.dtd">
<svg version="1.0" xmlns="http://www.w3.org/2000/svg"
 width="999.000000pt" height="250.000000pt" viewBox="0 0 999.000000 250.000000"
 preserveAspectRatio="xMidYMid meet">

<g transform="translate(0.000000,250.000000) scale(0.100000,-0.100000)"
fill="#000000" stroke="none">
<path d="M1138 2422 l-78 -3 0 -122 0 -122 158 0 c169 0 236 -13 375 -71 357
-150 587 -543 547 -932 -28 -263 -152 -484 -362 -642 -97 -73 -165 -109 -277
-144 -481 -152 -994 107 -1156 583 -42 124 -45 168 -45 589 0 227 -4 402 -9
402 -5 0 -27 -28 -49 -63 -185 -292 -235 -616 -147 -946 97 -362 389 -669 750
-790 609 -204 1262 114 1479 719 40 110 57 200 63 336 25 543 -347 1040 -880
1173 -94 24 -249 38 -369 33z"/>
<path d="M870 2371 c-47 -15 -95 -33 -107 -40 l-23 -12 0 -537 c0 -301 4 -563
10 -597 24 -147 130 -283 275 -352 64 -30 89 -36 164 -41 153 -8 268 35 377
143 183 181 188 469 10 660 -117 126 -293 180 -461 141 l-50 -11 -3 -141 -3
-141 57 28 c97 49 194 32 276 -48 93 -91 86 -251 -16 -340 -47 -42 -95 -56
-176 -51 -84 4 -138 38 -185 113 l-30 48 -3 604 c-2 467 -5 603 -15 603 -7 -1
-50 -13 -97 -29z"/>
<path d="M3859 1809 c-117 -18 -179 -91 -195 -226 l-6 -62 -47 -3 -46 -3 0
-60 0 -60 47 -3 48 -3 2 -257 3 -257 80 0 80 0 3 258 2 257 75 0 74 0 6 33 c3
17 4 43 1 57 -2 14 -5 28 -5 33 -1 4 -35 7 -76 7 l-75 0 0 35 c0 53 25 103 57
116 16 6 52 8 84 5 63 -7 63 -8 74 67 7 44 7 45 -27 55 -49 15 -107 19 -159
11z"/>
<path d="M2910 1362 c0 -340 3 -442 13 -450 62 -51 309 -66 403 -24 111 50
156 132 162 295 6 161 -34 260 -127 315 -63 37 -176 39 -234 5 -21 -13 -40
-23 -42 -23 -3 0 -6 71 -7 158 l-3 157 -82 3 -83 3 0 -439z m360 3 c35 -32 53
-96 48 -182 -4 -91 -20 -129 -68 -161 -29 -19 -45 -22 -100 -20 l-65 3 0 175
0 175 35 18 c43 22 121 18 150 -8z"/>
<path d="M7677 1794 c-3 -3 -6 -203 -7 -445 l-1 -438 23 -15 c54 -35 220 -46
305 -21 110 33 171 106 200 239 14 66 15 90 5 156 -17 121 -59 192 -137 233
-31 17 -58 22 -120 22 -70 0 -86 -4 -127 -28 -27 -15 -48 -32 -48 -37 0 -6 -4
-10 -10 -10 -6 0 -10 65 -10 175 l0 175 -33 0 c-19 0 -36 -3 -40 -6z m348
-357 c62 -35 88 -92 93 -201 7 -129 -9 -187 -66 -246 -61 -62 -125 -78 -229
-58 l-68 13 -3 173 c-3 193 4 236 48 286 51 58 154 73 225 33z"/>
<path d="M5917 1712 c-22 -24 -21 -55 1 -75 37 -34 92 -11 92 38 0 50 -60 73
-93 37z"/>
<path d="M6168 1719 c-25 -14 -24 -75 1 -89 29 -15 56 -12 74 8 46 50 -16 116
-75 81z"/>
<path d="M5308 1519 c-20 -6 -54 -26 -76 -45 -22 -19 -43 -34 -45 -34 -3 0 -7
17 -9 38 -3 34 -6 37 -35 40 l-33 3 0 -325 0 -326 34 0 33 0 5 228 c6 243 10
263 60 308 39 36 66 45 139 45 82 0 123 -18 154 -71 18 -32 20 -55 23 -272 l3
-238 35 0 35 0 -3 258 -3 257 -28 48 c-37 63 -89 89 -182 93 -38 2 -86 -2
-107 -7z"/>
<path d="M6746 1515 c-46 -16 -91 -57 -116 -105 l-19 -35 -1 35 c0 19 -3 52
-7 73 -5 35 -8 38 -37 35 -30 -3 -31 -4 -31 -55 1 -29 2 -174 3 -323 l2 -270
35 0 35 0 0 168 c0 186 13 260 54 322 32 48 63 70 124 85 42 11 47 15 50 42 2
25 -1 32 -20 37 -29 7 -26 8 -72 -9z"/>
<path d="M7152 1511 c-29 -10 -66 -31 -82 -46 l-29 -28 -7 42 c-6 40 -8 42
-38 39 l-31 -3 0 -320 0 -320 35 0 35 0 5 230 c6 262 11 280 88 323 52 29 153
32 207 6 65 -30 69 -50 75 -319 l5 -240 38 -3 39 -3 -4 253 c-3 275 -5 286
-66 351 -51 54 -173 72 -270 38z"/>
<path d="M8531 1519 c-125 -38 -202 -166 -203 -338 -1 -146 47 -240 148 -291
72 -36 204 -39 294 -8 67 24 81 40 58 70 -12 16 -17 16 -68 -2 -62 -22 -160
-26 -211 -8 -79 27 -125 87 -136 179 l-6 49 233 0 233 0 -5 83 c-8 120 -59
211 -143 254 -36 19 -148 26 -194 12z m167 -83 c44 -22 83 -90 89 -152 l6 -54
-192 0 c-219 0 -208 -6 -171 93 23 62 70 111 120 126 43 12 110 6 148 -13z"/>
<path d="M9245 1517 c-49 -19 -79 -44 -105 -86 -14 -22 -28 -41 -32 -41 -5 0
-8 29 -8 65 l0 65 -35 0 -35 0 0 -326 0 -325 38 3 37 3 5 200 c4 162 9 208 23
240 34 76 109 135 172 135 22 0 25 4 25 34 0 46 -25 56 -85 33z"/>
<path d="M9565 1517 c-133 -51 -188 -149 -189 -332 -1 -95 3 -117 23 -163 64
-144 222 -191 375 -113 l58 31 -4 -84 c-8 -145 -62 -205 -197 -214 -35 -3 -89
1 -119 8 -45 10 -56 10 -63 -1 -32 -50 22 -74 166 -74 89 0 106 3 152 28 82
42 115 98 133 222 11 77 14 597 3 658 -5 35 -8 38 -37 35 -27 -3 -31 -7 -34
-34 l-3 -31 -29 27 c-50 47 -164 64 -235 37z m203 -94 c53 -39 62 -73 62 -245
l0 -158 -41 -29 c-84 -62 -187 -68 -254 -16 -120 91 -108 376 19 451 61 36
163 35 214 -3z"/>
<path d="M4033 1512 c-10 -6 -2 -46 32 -168 25 -87 64 -224 86 -304 23 -80 46
-151 51 -157 12 -15 145 -18 166 -5 13 9 94 275 107 352 11 69 21 79 29 28 8
-50 90 -361 101 -378 3 -5 42 -10 90 -10 82 0 85 1 99 28 44 84 155 485 159
573 l2 44 -69 0 c-81 0 -72 14 -106 -170 -23 -129 -57 -271 -69 -294 -6 -9
-15 15 -25 65 -32 148 -99 389 -110 396 -6 4 -38 8 -71 8 -33 0 -65 -4 -71 -8
-11 -7 -70 -203 -116 -387 l-22 -90 -14 65 c-35 168 -96 406 -106 412 -15 10
-128 10 -143 0z"/>
<path d="M5814 1505 c-10 -26 3 -478 15 -515 24 -79 114 -130 225 -130 71 0
150 32 183 73 25 32 33 26 33 -25 0 -37 1 -38 35 -38 l35 0 -2 323 -3 322 -37
3 -36 3 -4 -228 c-3 -200 -5 -233 -22 -266 -42 -85 -163 -121 -259 -79 -80 36
-82 41 -85 324 l-3 248 -35 0 c-22 0 -37 -6 -40 -15z"/>
</g>
</svg>
